HIERARCHY
ROOT Hips
{
 OFFSET 0.000000 0.000000 0.000000
 CHANNELS 6 Xposition Yposition Zposition Yrotation Xrotation Zrotation
 JOINT Chest
 {
  OFFSET 0.000000 9.585900 0.002600
  CHANNELS 3 Yrotation Xrotation Zrotation
  JOINT Chest2
  {
   OFFSET 0.000000 9.601200 -0.005300
   CHANNELS 3 Yrotation Xrotation Zrotation
   JOINT Chest3
   {
    OFFSET 0.000000 9.561800 0.000000
    CHANNELS 3 Yrotation Xrotation Zrotation
    JOINT Chest4
    {
     OFFSET 0.000000 9.552100 0.000000
     CHANNELS 3 Yrotation Xrotation Zrotation
     JOINT Neck
     {
      OFFSET 0.000000 14.453000 0.000000
      CHANNELS 3 Yrotation Xrotation Zrotation
      JOINT Head
      {
       OFFSET 0.000000 8.936500 -0.011300
       CHANNELS 3 Yrotation Xrotation Zrotation
       End Site
       {
        OFFSET 0.000000 17.073600 -0.006000
       }
      }
     }
     JOINT RightCollar
     {
      OFFSET -2.921100 9.558500 0.000000
      CHANNELS 3 Yrotation Xrotation Zrotation
      JOINT RightShoulder
      {
       OFFSET -13.519700 0.000000 0.000000
       CHANNELS 3 Yrotation Xrotation Zrotation
       JOINT RightElbow
       {
        OFFSET 0.000000 -29.696600 0.000000
        CHANNELS 3 Yrotation Xrotation Zrotation
        JOINT RightWrist
        {
         OFFSET 0.000000 -24.004700 0.000000
         CHANNELS 3 Yrotation Xrotation Zrotation
         End Site
         {
          OFFSET 0.000000 -17.728500 0.000000
         }
        }
       }
      }
     }
     JOINT LeftCollar
     {
      OFFSET 2.921100 9.558500 0.000000
      CHANNELS 3 Yrotation Xrotation Zrotation
      JOINT LeftShoulder
      {
       OFFSET 13.519700 0.000000 0.000000
       CHANNELS 3 Yrotation Xrotation Zrotation
       JOINT LeftElbow
       {
        OFFSET 0.000000 -29.696600 0.000000
        CHANNELS 3 Yrotation Xrotation Zrotation
        JOINT LeftWrist
        {
         OFFSET 0.000000 -24.004700 0.000000
         CHANNELS 3 Yrotation Xrotation Zrotation
         End Site
         {
          OFFSET 0.000000 -17.728500 0.000000
         }
        }
       }
      }
     }
    }
   }
  }
 }
 JOINT RightHip
 {
  OFFSET -7.771700 -0.012900 -0.001300
  CHANNELS 3 Yrotation Xrotation Zrotation
  JOINT RightKnee
  {
   OFFSET 0.000000 -40.869800 0.001200
   CHANNELS 3 Yrotation Xrotation Zrotation
   JOINT RightAnkle
   {
    OFFSET 0.000000 -39.717900 0.002100
    CHANNELS 3 Yrotation Xrotation Zrotation
    JOINT RightToe
    {
     OFFSET 0.000000 -4.965400 11.033500
     CHANNELS 3 Yrotation Xrotation Zrotation
     End Site
     {
      OFFSET 0.000000 -1.423100 5.872300
     }
    }
   }
  }
 }
 JOINT LeftHip
 {
  OFFSET 7.771700 -0.012900 -0.001300
  CHANNELS 3 Yrotation Xrotation Zrotation
  JOINT LeftKnee
  {
   OFFSET 0.000000 -40.869800 0.001200
   CHANNELS 3 Yrotation Xrotation Zrotation
   JOINT LeftAnkle
   {
    OFFSET 0.000000 -39.717900 0.002100
    CHANNELS 3 Yrotation Xrotation Zrotation
    JOINT LeftToe
    {
     OFFSET 0.000000 -4.965400 11.033500
     CHANNELS 3 Yrotation Xrotation Zrotation
     End Site
     {
      OFFSET 0.000000 -1.423100 5.872300
     }
    }
   }
  }
 }
}
MOTION
Frames: 11
Frame Time: 0.008333
0.000000 85.388000 0.000000 0.000000 -5.767877 0.000000 0.000000 11.653817 0.000000 0.000000 -5.885947 0.000000 0.000000 -0.000000 0.000000 0.000000 -0.000000 0.000000 0.000000 12.528835 0.000000 0.000000 0.711642 0.000000 0.000000 -0.000000 0.000000 0.000000 0.000000 -90.000000 0.000000 -2.309062 0.000000 0.000000 2.309062 0.000000 0.000000 -0.000000 0.000000 0.000000 -0.000000 90.000000 0.000000 -2.309062 0.000000 0.000000 2.309062 0.000000 0.000000 8.520406 0.000000 0.000000 1.905762 0.000000 -0.000000 -4.658285 0.000000 0.000000 -0.000000 0.000000 0.000000 8.520406 0.000000 0.000000 1.905762 0.000000 -0.000000 -4.658285 0.000000 0.000000 -0.000000 0.000000
-22.403123 51.338253 27.113245 172.481461 -13.498899 2.657467 2.167098 6.778950 2.283154 0.089131 0.249890 0.084622 0.107877 0.485346 0.148834 1.740782 6.083442 2.028087 0.130571 22.578311 -0.521980 0.292489 6.218621 -0.947772 0.128680 8.451836 -0.077927 -9.153249 -8.840564 -4.140201 22.936914 -65.323611 -14.039293 -0.414585 1.500089 -29.233687 -5.854722 3.509283 0.129497 19.371448 -1.784502 1.320107 25.108235 -77.347121 -43.062636 5.717296 -0.717585 25.504147 0.501919 -67.138029 -14.239489 -139.545353 81.458175 -140.071479 -4.411761 -16.625019 1.069008 -0.043203 -0.102792 0.298230 6.622076 -71.687966 9.292988 140.468639 80.678697 133.565323 -17.395617 -23.964468 3.794994 0.316331 2.546743 0.496390
-22.427620 51.320717 27.123743 172.712300 -13.311655 2.628634 1.981678 6.548212 2.255374 0.071777 0.266039 0.084396 0.126334 0.467221 0.148569 1.751729 6.073311 2.027745 0.134716 22.556747 -0.524803 0.314545 6.182485 -0.948259 0.175551 8.557880 -0.094665 -9.238367 -8.788101 -4.185251 18.128766 -65.558095 -9.083567 -0.679767 1.602788 -29.435004 -5.899712 3.322812 -0.099546 19.234390 -1.586676 1.522676 25.981270 -77.175023 -43.966990 5.715547 -0.665942 25.202806 0.625900 -67.334363 -14.510492 -139.543082 81.389741 -140.022057 -4.482185 -16.646862 1.084892 0.008848 -0.101333 0.251897 6.581780 -71.856206 8.897644 139.232019 81.141287 132.350460 -17.356683 -24.057487 3.776298 0.224842 2.414849 0.379289
-22.449726 51.304945 27.119031 172.827551 -13.202871 2.611715 1.907325 6.398103 2.245059 0.086101 0.232997 0.081578 0.112660 0.497735 0.150563 1.759289 6.062566 2.023045 0.118497 22.570840 -0.516564 0.362868 6.112678 -0.963534 0.235166 8.667984 -0.108733 -9.315965 -8.734003 -4.245677 12.448623 -65.585014 -3.264015 -1.037576 1.689485 -29.641337 -5.973042 3.115400 -0.390088 19.232514 -1.331304 1.787490 26.319422 -77.194025 -44.386781 5.676154 -0.561515 24.790088 0.664841 -67.454521 -14.622772 -139.569624 81.345770 -140.054414 -4.511255 -16.688333 1.123046 0.025687 -0.077218 0.197443 6.564623 -71.935516 8.578402 137.747852 81.591054 130.897399 -17.325612 -24.158952 3.760567 0.171449 2.299557 0.273031
-22.469928 51.290533 27.103979 172.885083 -13.153265 2.599160 1.869688 6.292930 2.239757 0.072574 0.270414 0.084790 0.127235 0.477231 0.149863 1.772603 6.036517 2.012474 0.112869 22.598468 -0.502911 0.418340 6.044528 -0.980268 0.310946 8.782154 -0.123110 -9.383575 -8.674727 -4.320057 6.130608 -65.297446 3.186801 -1.491851 1.746437 -29.836610 -6.080169 2.889701 -0.740773 19.352392 -1.038321 2.166521 26.304670 -77.279170 -44.487007 5.594359 -0.417643 24.287354 0.729716 -67.514837 -14.692173 -139.537760 81.287515 -140.060082 -4.516630 -16.708781 1.159364 0.015194 -0.074578 0.184554 6.512361 -71.944240 8.338843 135.990236 82.015332 129.169301 -17.314254 -24.244089 3.753163 0.166734 2.173872 0.180470
-22.486224 51.276566 27.085254 172.908528 -13.132042 2.575542 1.849435 6.263736 2.256198 0.072684 0.263816 0.083454 0.127991 0.463575 0.146839 1.777158 6.046992 2.013627 0.141135 22.557866 -0.508765 0.473631 6.007129 -0.988462 0.405329 8.831404 -0.155342 -9.439770 -8.610702 -4.407411 -0.403700 -64.622479 9.870657 -2.035944 1.766594 -30.008200 -6.208230 2.615871 -1.126174 19.577446 -0.706533 2.624703 26.032719 -77.393556 -44.368911 5.473766 -0.250529 23.691426 0.779618 -67.547291 -14.707373 -139.481746 81.226016 -140.037339 -4.523130 -16.725170 1.187425 0.011154 -0.076084 0.177687 6.367209 -71.913121 8.220408 133.957920 82.402843 127.161358 -17.287955 -24.326793 3.760303 0.181096 2.042701 0.083591
-22.501100 51.262483 27.067967 172.930423 -13.113052 2.550016 1.809556 6.222536 2.266912 0.024745 0.244458 0.071395 0.174947 0.481334 0.158062 1.703150 6.006317 1.996556 0.250572 22.571925 -0.504339 0.555673 5.975643 -1.009111 0.580723 8.903172 -0.182777 -9.474748 -8.543819 -4.502845 -6.633004 -63.565877 16.274690 -2.674301 1.752712 -30.155351 -6.278645 2.455966 -1.474210 19.883517 -0.367710 3.091134 25.685484 -77.526648 -44.223444 5.319387 -0.073428 23.002800 0.827839 -67.577941 -14.699333 -139.481641 81.166982 -140.113489 -4.511169 -16.719260 1.273375 -0.048202 -0.099508 0.145952 6.180498 -71.864712 8.142614 131.647050 82.751629 124.879367 -17.308520 -24.369162 3.789047 0.224939 1.870294 -0.007706
-22.511612 51.247548 27.056735 172.921004 -13.071626 2.512194 1.750912 6.156736 2.281013 0.035245 0.251658 0.076942 0.193232 0.480596 0.156195 1.659354 5.987771 1.997870 0.308197 22.520372 -0.525916 0.678499 5.991670 -1.036127 0.727397 8.921402 -0.232312 -9.483345 -8.477445 -4.595468 -12.143820 -62.219237 21.981092 -3.394273 1.715982 -30.294903 -6.375842 2.375438 -1.743298 20.227826 -0.040497 3.495248 25.458622 -77.691032 -44.232984 5.145836 0.120332 22.235875 0.868181 -67.630411 -14.662443 -139.454873 81.121803 -140.094529 -4.532163 -16.729914 1.232452 -0.045617 -0.096404 0.188988 5.965330 -71.826653 8.123629 129.051141 83.057305 122.327327 -17.323057 -24.440715 3.837018 0.229556 1.724859 -0.116317
-22.522229 51.232635 27.049675 172.911595 -13.018065 2.485174 1.733922 6.094117 2.300989 -0.012184 0.245793 0.068754 0.141296 0.458884 0.148836 1.681117 5.987409 2.007079 0.371324 22.494934 -0.543353 0.815178 5.985043 -1.079701 0.870415 8.917076 -0.298938 -9.466046 -8.417015 -4.681892 -16.735745 -60.726176 26.790265 -4.129935 1.678861 -30.435927 -6.441869 2.398288 -1.897050 20.570140 0.285655 3.800527 25.406736 -77.894847 -44.427766 4.969122 0.342864 21.400816 0.943948 -67.696461 -14.657983 -139.440209 81.082438 -140.095405 -4.561182 -16.728619 1.254024 -0.044395 -0.098151 0.181108 5.787542 -71.788608 8.057306 126.197953 83.308718 119.534106 -17.334554 -24.493609 3.895511 0.230876 1.561384 -0.225142
-22.534862 51.217372 27.049952 172.927238 -12.931939 2.473578 1.574241 5.996346 2.267780 0.044337 0.254625 0.079405 0.117928 0.450723 0.145066 1.668951 5.973729 2.014521 0.446787 22.480963 -0.561583 0.956404 5.960265 -1.132888 0.997816 8.888320 -0.382905 -9.415175 -8.364827 -4.766135 -20.398472 -59.248202 30.673420 -4.779141 1.673435 -30.579100 -6.465589 2.486370 -1.937484 20.893238 0.637280 4.003273 25.407423 -78.143346 -44.668762 4.802761 0.597823 20.518569 1.053341 -67.796698 -14.709842 -139.407241 81.046697 -140.085043 -4.581669 -16.707441 1.298362 -0.056222 -0.112989 0.156582 5.688855 -71.779582 7.888256 123.236182 83.494158 116.654938 -17.388776 -24.456779 3.955063 0.248609 1.328338 -0.310966
-22.545916 51.206225 27.039710 172.848162 -12.918375 2.496533 1.530585 5.994275 2.234858 0.065187 0.254874 0.082435 0.114837 0.447990 0.145018 1.633017 5.958869 2.018607 0.525250 22.462006 -0.584388 1.104262 5.926379 -1.195228 1.107883 8.841029 -0.482714 -9.337103 -8.326036 -4.844254 -23.185442 -57.944104 33.676773 -5.267808 1.736063 -30.734658 -6.457574 2.592747 -1.891654 21.191223 1.039560 4.117010 25.266694 -78.444798 -44.748844 4.656192 0.891013 19.640092 1.247084 -67.819073 -14.782569 -139.376137 81.016606 -140.050614 -4.633969 -16.732834 1.315802 -0.018832 -0.081629 0.158785 5.779174 -71.708906 7.637948 120.525347 83.583354 114.055447 -17.408176 -24.391266 3.995349 0.237681 1.092826 -0.374725
